<svg xmlns="http://www.w3.org/2000/svg" xmlns:xlink="http://www.w3.org/1999/xlink" width="1622" height="1622" viewBox="0 0 1622 1622">
  <defs>
    <clipPath id="clip-Mockup">
      <rect width="1622" height="1622"/>
    </clipPath>
  </defs>
  <g id="Mockup" clip-path="url(#clip-Mockup)">
    <rect width="1622" height="1622" fill="#f5f5f5"/>
    <g id="Group_36" data-name="Group 36" transform="translate(0.617 170.695)">
      <rect id="Rectangle_78" data-name="Rectangle 78" width="473" height="968" rx="70" transform="translate(574.383 156.305)" fill="#74859b"/>
      <rect id="NoPath_-_Copy_6_" data-name="NoPath - Copy (6)" width="447" height="945" rx="64" transform="translate(583.383 165.305)" fill="#9fb5d1"/>
      <path id="Subtraction_5" data-name="Subtraction 5" d="M907-3217.5H581a64.1,64.1,0,0,1-25.107-5.069,64.517,64.517,0,0,1-10.956-5.947,64.975,64.975,0,0,1-9.546-7.876,64.953,64.953,0,0,1-7.876-9.546,64.508,64.508,0,0,1-5.947-10.956A64.1,64.1,0,0,1,516.5-3282v-822a64.092,64.092,0,0,1,5.069-25.106,64.519,64.519,0,0,1,5.947-10.956,64.934,64.934,0,0,1,7.876-9.545,64.91,64.91,0,0,1,9.546-7.876,64.5,64.5,0,0,1,10.956-5.947A64.1,64.1,0,0,1,581-4168.5H907a64.1,64.1,0,0,1,25.106,5.069,64.507,64.507,0,0,1,10.956,5.947,64.951,64.951,0,0,1,9.546,7.876,64.95,64.95,0,0,1,7.876,9.545,64.51,64.51,0,0,1,5.947,10.956A64.1,64.1,0,0,1,971.5-4104v822a64.1,64.1,0,0,1-5.069,25.107,64.5,64.5,0,0,1-5.947,10.956,64.966,64.966,0,0,1-7.876,9.546,64.979,64.979,0,0,1-9.546,7.876,64.524,64.524,0,0,1-10.956,5.947A64.1,64.1,0,0,1,907-3217.5ZM576.529-4155.1h0a26.606,26.606,0,0,0-4.189.316,31.38,31.38,0,0,0-3.981.563c-.387.108-.82.216-1.279.332a35.155,35.155,0,0,0-4.228,1.267l-.543.21a50.031,50.031,0,0,0-14.412,7.753,42.1,42.1,0,0,0-7.675,8.158,58.018,58.018,0,0,0-6.807,12.743c-2.716,6.915-3.182,15.073-3.633,22.961q-.044.767-.088,1.528c.048,10.584.039,19.775.022,25.621-.143,1.537-.215,3.1-.215,4.648v789a49.556,49.556,0,0,0,49.5,49.5H910a49.557,49.557,0,0,0,49.5-49.5v-788.777h.086l-1.183-42.178c-.009-.082-.872-8.268-2.941-12.919a71.48,71.48,0,0,0-3.93-7.736,46.127,46.127,0,0,0-5.893-7.89,50.438,50.438,0,0,0-13.264-9.762,57.79,57.79,0,0,0-11.608-4.726,8.6,8.6,0,0,0-2.064-.427h-.016c-.217-.016-.515-.037-1.011-.092-1.705-.19-3.75-.247-3.769-.247l-60.09-.145c-.021,0-.095-.006-.206-.006-.816,0-3.492.218-3.662,3.021a20.66,20.66,0,0,0,.223,3.619,14.332,14.332,0,0,1,.165,3.266c-.7,5.351-1.854,7.517-4.178,11.528a21.641,21.641,0,0,1-3.845,4.927,16.8,16.8,0,0,1-3.726,2.677,11.624,11.624,0,0,1-3.93,1.324l-.017.005.007,0-.044.018.037-.013a13.961,13.961,0,0,1-3.5,1.016,23.915,23.915,0,0,1-3.756.284h-.012l-160.664.224h0c-.1,0-3.741-.007-6.15-.19a19.362,19.362,0,0,1-3.674-.554,26.3,26.3,0,0,1-5.5-2.3,25.073,25.073,0,0,1-4.725-3.351,19.6,19.6,0,0,1-4.137-5.233c-2.108-3.931-3.048-9.127-3.466-12.793-.071-.619-.128-1.18-.183-1.722l0-.017c-.227-2.221-.376-3.688-1.007-4.6s-1.723-1.276-3.888-1.276h-.693c-3.14,0-13.106-.009-22.44-.018C597.826-4155.088,583.078-4155.1,576.529-4155.1Z" transform="translate(66.383 4333.305)"/>
      <rect id="Rectangle_81" data-name="Rectangle 81" width="50" height="10" rx="5" transform="translate(786.383 183.305)" fill="#fff" opacity="0.22"/>
      <circle id="Ellipse_27" data-name="Ellipse 27" cx="9" cy="9" r="9" transform="translate(845.383 179.305)" fill="#fff" opacity="0.22"/>
    </g>
  </g>
</svg>
